<?xml version="1.0" standalone="no"?>
<!DOCTYPE svg PUBLIC "-//W3C//DTD SVG 20010904//EN"
 "http://www.w3.org/TR/2001/REC-SVG-20010904/DTD/svg10.dtd">
<svg version="1.0" xmlns="http://www.w3.org/2000/svg"
 width="640.000000pt" height="640.000000pt" viewBox="0 0 640.000000 640.000000"
 preserveAspectRatio="xMidYMid meet">
<metadata>
Created by potrace 1.14, written by Peter Selinger 2001-2017
</metadata>
<g transform="translate(0.000000,640.000000) scale(0.100000,-0.100000)"
fill="#000000" stroke="none">
<path d="M2460 4573 c0 -12 5 -25 10 -28 13 -8 13 15 0 35 -8 12 -10 11 -10
-7z"/>
<path d="M2499 4523 c-13 -16 -12 -17 4 -4 9 7 17 15 17 17 0 8 -8 3 -21 -13z"/>
<path d="M2395 4509 c-4 -6 -5 -12 -2 -15 2 -3 7 2 10 11 7 17 1 20 -8 4z"/>
<path d="M2347 4474 c-4 -4 -7 -14 -7 -23 0 -11 3 -12 11 -4 6 6 10 16 7 23
-2 6 -7 8 -11 4z"/>
<path d="M2370 4473 c0 -5 5 -15 10 -23 13 -21 48 -21 46 -1 -1 9 5 15 14 13
8 -2 12 0 7 4 -4 4 -17 9 -28 11 -17 3 -19 -1 -14 -18 5 -15 4 -19 -4 -15 -6
4 -11 14 -11 22 0 8 -4 14 -10 14 -5 0 -10 -3 -10 -7z"/>
<path d="M2302 4395 c-16 -34 -15 -47 3 -71 13 -16 14 -16 9 -1 -4 11 4 28 25
49 29 30 39 48 25 48 -4 0 -13 -8 -21 -17 -8 -12 -12 -13 -11 -4 5 25 -18 22
-30 -4z m9 -38 c-8 -8 -11 -7 -11 4 0 20 13 34 18 19 3 -7 -1 -17 -7 -23z"/>
<path d="M2270 4355 c0 -5 5 -17 10 -25 5 -8 10 -10 10 -5 0 6 -5 17 -10 25
-5 8 -10 11 -10 5z"/>
<path d="M2346 4321 c-12 -5 -15 -10 -9 -14 6 -4 16 0 23 8 14 17 13 17 -14 6z"/>
<path d="M2256 4301 c-4 -7 -5 -15 -2 -18 9 -9 19 4 14 18 -4 11 -6 11 -12 0z"/>
<path d="M2280 4300 c0 -5 5 -10 10 -10 6 0 10 5 10 10 0 6 -4 10 -10 10 -5 0
-10 -4 -10 -10z"/>
<path d="M2270 4254 c0 -13 3 -14 15 -4 8 6 19 9 25 5 5 -3 10 -1 10 4 0 6
-11 11 -25 11 -16 0 -25 -6 -25 -16z"/>
<path d="M2236 4251 c-4 -6 -5 -11 -1 -11 3 0 -1 -15 -8 -32 -7 -18 -14 -51
-14 -73 -1 -36 0 -34 11 17 7 32 18 63 24 71 6 7 7 18 3 26 -6 9 -11 10 -15 2z"/>
<path d="M2240 4175 c0 -8 4 -15 10 -15 5 0 7 7 4 15 -4 8 -8 15 -10 15 -2 0
-4 -7 -4 -15z"/>
<path d="M2291 4124 c0 -11 3 -14 6 -6 3 7 2 16 -1 19 -3 4 -6 -2 -5 -13z"/>
<path d="M2231 4114 c0 -11 3 -14 6 -6 3 7 2 16 -1 19 -3 4 -6 -2 -5 -13z"/>
<path d="M2191 4094 c0 -11 3 -14 6 -6 3 7 2 16 -1 19 -3 4 -6 -2 -5 -13z"/>
<path d="M2192 3948 c-1 -59 1 -109 6 -111 4 -3 6 29 4 71 -4 135 -9 150 -10
40z"/>
<path d="M2212 3955 c0 -16 2 -22 5 -12 2 9 2 23 0 30 -3 6 -5 -1 -5 -18z"/>
<path d="M430 1980 l0 -511 78 3 77 3 5 404 5 404 84 -219 c45 -120 115 -303
155 -406 l71 -188 72 0 72 0 21 58 c11 31 37 98 56 147 19 50 79 207 134 350
l99 260 3 -405 3 -405 78 -3 77 -3 0 511 0 510 -117 0 -118 0 -47 -128 c-26
-70 -71 -190 -101 -267 -30 -77 -78 -203 -107 -279 l-53 -139 -52 134 c-28 74
-98 257 -156 407 l-104 272 -117 0 -118 0 0 -510z"/>
<path d="M2920 1981 l0 -511 80 0 80 0 0 179 0 179 173 4 c184 5 226 14 298
64 85 58 136 177 126 293 -10 124 -70 216 -175 267 l-57 29 -262 3 -263 3 0
-510z m512 341 c58 -36 82 -84 82 -162 0 -75 -23 -124 -77 -162 -30 -21 -45
-23 -194 -26 l-163 -4 0 192 0 192 158 -4 c143 -3 160 -5 194 -26z"/>
<path d="M5822 1983 l3 -508 73 -3 72 -3 0 511 0 510 -75 0 -75 0 2 -507z"/>
<path d="M1735 2455 c-36 -35 -35 -96 1 -124 29 -23 92 -28 124 -11 26 14 43
71 31 103 -23 59 -111 78 -156 32z"/>
<path d="M3816 2455 c-58 -54 -18 -145 64 -145 55 0 76 13 89 53 30 91 -82
158 -153 92z"/>
<path d="M5202 2199 c-107 -21 -205 -96 -254 -197 -31 -62 -33 -74 -33 -167 0
-89 3 -107 29 -162 31 -68 98 -139 162 -171 139 -70 321 -50 444 49 44 36 95
108 105 152 l7 27 -76 0 c-55 0 -76 -4 -76 -13 0 -22 -60 -87 -100 -107 -50
-26 -126 -35 -177 -21 -59 16 -124 68 -150 121 -44 86 -64 80 287 80 l310 0 0
43 c0 247 -222 417 -478 366z m201 -135 c62 -31 127 -107 127 -149 0 -13 -29
-15 -236 -15 l-235 0 6 23 c41 132 213 204 338 141z"/>
<path d="M1730 1835 l0 -366 73 3 72 3 0 360 0 360 -72 3 -73 3 0 -366z"/>
<path d="M2010 2194 c0 -3 61 -84 135 -180 150 -192 145 -176 83 -251 -18 -23
-60 -75 -93 -118 -33 -42 -75 -95 -92 -117 -18 -22 -33 -44 -33 -49 0 -6 35
-9 82 -7 l82 3 104 135 c57 74 107 136 111 138 4 1 56 -61 116 -138 l108 -140
84 0 c65 0 82 3 76 13 -4 6 -55 73 -113 147 -58 74 -118 152 -133 172 l-28 36
131 167 c72 92 134 173 137 181 4 11 -9 14 -65 14 -39 0 -78 -3 -87 -6 -9 -4
-63 -67 -120 -141 l-104 -134 -53 68 c-30 37 -76 97 -103 133 -28 36 -54 68
-60 72 -12 9 -165 11 -165 2z"/>
<path d="M3810 1835 l0 -365 70 0 c60 0 70 3 71 18 0 9 1 172 1 362 l0 345
-71 3 -71 3 0 -366z"/>
<path d="M4090 2194 c0 -6 184 -246 237 -308 18 -22 33 -43 33 -48 0 -9 -38
-59 -187 -246 -46 -57 -83 -108 -83 -113 0 -5 36 -9 80 -9 l79 0 108 140 c59
76 111 139 114 140 3 0 54 -63 114 -140 l108 -140 84 0 c63 0 82 3 77 12 -4 7
-55 72 -113 146 -58 74 -118 151 -134 173 l-28 38 131 167 c72 91 134 172 137
180 5 12 -8 14 -78 12 l-83 -3 -105 -137 -106 -137 -25 28 c-14 15 -64 78
-112 139 l-88 112 -80 0 c-44 0 -80 -3 -80 -6z"/>
</g>
</svg>
